HIERARCHY
ROOT Hips
{
	OFFSET 0.000000 0.000000 0.000000
	CHANNELS 6 Xposition Yposition Zposition Zrotation Yrotation Xrotation 
	JOINT LHipJoint
	{
		OFFSET 0.000000 0.000000 0.000000
		CHANNELS 3 Zrotation Yrotation Xrotation
		JOINT LeftUpLeg
		{
			OFFSET 1.363060 -1.794630 0.839290
			CHANNELS 3 Zrotation Yrotation Xrotation
			JOINT LeftLeg
			{
				OFFSET 2.448110 -6.726130 0.000000
				CHANNELS 3 Zrotation Yrotation Xrotation
				JOINT LeftFoot
				{
					OFFSET 2.562200 -7.039590 0.000000
					CHANNELS 3 Zrotation Yrotation Xrotation
					JOINT LeftToeBase
					{
						OFFSET 0.157640 -0.433110 2.322550
						CHANNELS 3 Zrotation Yrotation Xrotation
						End Site
						{
							OFFSET 0.000000 0.000000 0.000000
						}
					}
				}
			}
		}
	}
	JOINT RHipJoint
	{
		OFFSET 0.000000 0.000000 0.000000
		CHANNELS 3 Zrotation Yrotation Xrotation
		JOINT RightUpLeg
		{
			OFFSET -1.305520 -1.794630 0.839290
			CHANNELS 3 Zrotation Yrotation Xrotation
			JOINT RightLeg
			{
				OFFSET -2.542530 -6.985550 0.000000
				CHANNELS 3 Zrotation Yrotation Xrotation
				JOINT RightFoot
				{
					OFFSET -2.568260 -7.056230 0.000000
					CHANNELS 3 Zrotation Yrotation Xrotation
					JOINT RightToeBase
					{
						OFFSET -0.164730 -0.452590 2.363150
						CHANNELS 3 Zrotation Yrotation Xrotation
						End Site
						{
							OFFSET 0.000000 0.000000 0.000000
						}
					}
				}
			}
		}
	}
}
MOTION
Frames: 17
Frame Time: 0.008333
0.442981 16.499254 1.648707 40.103768 -84.922123 -14.053965 -11.266315 1.965632 -1.718877 -10.967595 1.907466 -14.995731 -1.706345 1.187041 33.626339 0.301275 0.007981 -6.841216 -0.015000 0.000000 -75.904100 8.529784 0.572304 2.263526 6.275831 -0.737694 -52.643092 3.272477 -0.268819 9.538643 0.200199 -0.179172 11.538802 -0.926700 -0.000001 -68.871201
0.293767 16.520137 1.630087 35.250097 -85.408413 -8.707689 -11.346781 1.969909 -1.841227 -10.310877 2.537265 -16.770699 -1.491891 1.418962 36.077823 0.282798 -0.007404 -4.905226 0.015300 0.000001 -77.435000 8.546119 0.515674 2.361919 6.742301 0.041811 -52.799954 3.293037 -0.289644 10.073119 0.124316 -0.593684 11.071945 -1.091700 0.000000 -67.550900
0.147207 16.540296 1.607280 30.786203 -85.855013 -3.732287 -11.426352 1.982457 -1.958735 -9.792186 3.138109 -18.664492 -1.278967 1.663783 38.623435 0.305238 0.160602 -2.889413 0.036200 -0.000000 -77.880600 8.561200 0.497081 2.442921 7.173121 0.736856 -52.946321 3.324481 -0.290452 10.535730 0.069179 -0.895093 10.503456 -1.209701 0.000000 -66.171000
0.003089 16.559367 1.581408 26.539487 -86.263857 1.057502 -11.513550 1.991406 -2.064023 -9.380019 3.692182 -20.685504 -1.071674 1.916737 41.247781 0.369883 0.528540 -0.897423 0.066799 0.000000 -77.044300 8.562271 0.502619 2.515603 7.587835 1.363093 -53.085490 3.369355 -0.267097 10.887661 0.029880 -1.123566 9.904116 -1.298900 -0.000000 -64.789001
-0.138164 16.577142 1.552423 23.107451 -86.575737 5.050503 -11.608839 1.976497 -2.152032 -9.105149 4.145466 -22.775732 -0.867866 2.162166 43.901919 0.475479 1.130400 0.964047 0.133300 0.000000 -74.791900 8.540891 0.513252 2.575560 7.966023 1.858469 -53.239636 3.426247 -0.232796 11.169623 0.010027 -1.245126 9.291202 -1.346000 0.000000 -63.448699
-0.276423 16.593616 1.521085 20.557257 -86.779562 8.178140 -11.700067 1.928705 -2.221592 -8.953151 4.478750 -24.914228 -0.669999 2.392103 46.556137 0.614389 1.957546 2.574458 0.256700 0.000000 -71.134800 8.504291 0.519495 2.626117 8.315242 2.216748 -53.418613 3.494319 -0.193376 11.385560 0.006219 -1.274488 8.696168 -1.358400 0.000000 -62.206700
-0.411943 16.608842 1.488609 18.637282 -86.898692 10.702448 -11.778904 1.851264 -2.271475 -8.893233 4.694653 -27.106236 -0.484651 2.608266 49.184652 0.775989 2.971250 3.826105 0.442500 0.000000 -66.273200 8.459629 0.520358 2.674258 8.652511 2.470065 -53.630012 3.573216 -0.148000 11.522464 0.012378 -1.252625 8.155331 -1.354100 -0.000000 -61.122199
-0.544428 16.623085 1.455335 17.501889 -86.929367 12.458352 -11.833015 1.745848 -2.305209 -8.929812 4.786079 -29.312526 -0.312225 2.806497 51.739672 0.950212 4.129813 4.655944 0.681400 -0.000000 -60.618199 8.418651 0.515648 2.714314 8.971683 2.603466 -53.879224 3.659691 -0.105837 11.617169 0.028694 -1.168520 7.659652 -1.328500 0.000000 -60.223800
-0.674338 16.636465 1.422388 16.783003 -86.912679 13.829830 -11.865195 1.622905 -2.321797 -9.031964 4.769350 -31.548905 -0.157154 2.994258 54.189364 1.127274 5.359678 5.043098 0.944700 0.000000 -54.714501 8.380700 0.508971 2.753570 9.282920 2.671166 -54.169144 3.752645 -0.061665 11.655636 0.048791 -1.067899 7.225788 -1.299900 -0.000000 -59.536501
-0.801414 16.649353 1.390041 16.523254 -86.856885 14.765594 -11.871463 1.486837 -2.325079 -9.199653 4.647908 -33.785824 -0.017786 3.169725 56.490238 1.299629 6.593420 5.015095 1.199000 -0.000001 -49.112999 8.350925 0.502637 2.787657 9.576268 2.676755 -54.499255 3.848617 -0.020463 11.667904 0.072223 -0.944321 6.828783 -1.264600 -0.000000 -59.044400
-0.925936 16.661893 1.358845 16.573971 -86.784855 15.419149 -11.855089 1.343567 -2.316437 -9.417950 4.433516 -36.018387 0.105404 3.334849 58.612749 1.460286 7.755236 4.620791 1.409400 0.000000 -44.212300 8.327546 0.498605 2.819025 9.847435 2.653017 -54.865610 3.945164 0.019613 11.657724 0.095640 -0.815394 6.455973 -1.228201 -0.000000 -58.721800
-1.048130 16.674237 1.329136 16.827611 -86.714096 15.901914 -11.819549 1.197135 -2.297133 -9.673948 4.137358 -38.245367 0.211762 3.490807 60.535095 1.602781 8.775757 3.916738 1.547900 0.000000 -40.199400 8.307788 0.497991 2.851424 10.089596 2.631433 -55.266344 4.039949 0.060749 11.626506 0.116026 -0.695712 6.093742 -1.195000 -0.000000 -58.527400
-1.168009 16.686431 1.300899 17.275637 -86.652222 16.218093 -11.765200 1.049837 -2.270390 -9.961618 3.770158 -40.452880 0.300494 3.636083 62.236169 1.721343 9.599829 2.961401 1.598200 0.000001 -37.093000 8.291740 0.501713 2.884591 10.293984 2.626071 -55.694566 4.130346 0.102522 11.583573 0.132442 -0.584655 5.723697 -1.163700 0.000000 -58.412800
-1.285374 16.698709 1.273926 17.952847 -86.602906 16.317665 -11.690693 0.902895 -2.244484 -10.278711 3.348562 -42.607804 0.369674 3.767853 63.691767 1.811328 10.190231 1.816445 1.557899 -0.000000 -34.833100 8.281294 0.511922 2.910467 10.454133 2.635855 -56.128366 4.213403 0.142514 11.541648 0.146081 -0.469112 5.329938 -1.128500 0.000000 -58.341200
-1.401629 16.710188 1.248388 18.691244 -86.573248 16.407699 -11.602642 0.759575 -2.201625 -10.605541 2.860255 -44.772059 0.418065 3.887659 64.902914 1.870846 10.527097 0.548779 1.438500 0.000000 -33.283600 8.269698 0.522976 2.955961 10.565987 2.712498 -56.610807 4.289950 0.188787 11.476184 0.151321 -0.389807 4.931894 -1.104800 -0.000000 -58.264700
-1.515580 16.721469 1.223551 19.687440 -86.553817 16.243243 -11.493110 0.618122 -2.161852 -10.952875 2.329922 -46.860114 0.443481 3.988199 65.835960 1.899428 10.619470 -0.773891 1.262100 -0.000000 -32.370600 8.265825 0.540290 2.992513 10.627642 2.808011 -57.091057 4.356037 0.231075 11.421706 0.155079 -0.297535 4.511227 -1.074100 -0.000000 -58.180501
-1.627799 16.731994 1.199242 20.896222 -86.542247 15.882714 -11.363966 0.479462 -2.117205 -11.311291 1.751424 -48.891975 0.445313 4.068070 66.487756 1.900211 10.493663 -2.086335 1.055800 -0.000000 -31.971000 8.268202 0.561021 3.029454 10.640569 2.935233 -57.590685 4.411994 0.270404 11.375068 0.156548 -0.203716 4.085753 -1.041499 -0.000000 -58.078800
